Unforgettable: The Korean War premiered June 2010.



"Our nation honors her sons and daughters who answered the call to defend a country they never knew and a people they never met."
Spencer Titley
 
 Although a young man himself, Spencer Titley felt the weight of responsibility for the lives of the young men he led as platoon leader and company commander in a Combat Engineer Battalion.

The words etched on the Korean War Memorial commemorate the service, commitment and sacrifice of the U.S. armed forces members who fought a war against communism half a world away. However, for 60 years the Korean War was referred to as a "police action," "the Korean conflict" and "the Forgotten War." Yet, in all senses of the word, it was war. While millions died and many more suffered from the hostilities, the nation collectively "forgot" about or ignored the war and its veterans. Unforgettable: The Korean War uses historical movies and personal photos combined with emotional remembrances to reveal the individual stories, the pride, the patriotism, the gallantry, the sacrifice and heartache behind "the Forgotten War."

"I'm proud of what we did and we did it. The words at the Korean memorial spell that out. Freedom is not free. And we went to help a country that needed it."
     — Spencer Titley, United States Army

In this homage to Korea's forgotten fighters, veterans recall some of the searing wartime memories that were etched into their hearts and minds. Some memories are shared, such as the frigid winters, the death of friends and the gripping fear of combat. Other stories are much more personal: a fellow medic stepping on a landmine as he rushed to care for others torn apart by another mine; observing a Soviet MiG up close for the first time; dealing with racial tension in the newly integrated units; and racing through heavy fire to save another soldier, just to name a few.

"They don't call it "the Forgotten War" for nothing. Nobody remembers Korea."
     — Bill Williams, United States Air Force

On a good day, the tanks could pass through the river. But, changing weather and wartime conditions made the combat engineers' task of building and repairing bridges, often under fire, grueling and dangerous.

Unforgettable: The Korean War also goes beyond the battle stories to recount the aftermath of the war. When the peace talks finally ended and the fighting stopped, it was a generally thankless nation that greeted the returning troops. All of the veterans' effort and sacrifice went largely unacknowledged by their fellow citizens. Though fought by an international force assembled by the United Nations, it was as if the war didn't exist outside of Korea. As veteran Spencer Titley from the United States Army recalls, "I know no great novel written about it. And there is no poetry written. No songs. Nothing on the culture side marks the passage of Korea. It was basically over and done with and forgotten."

"They can call it whatever they want. I think it was a war and that's it. A lot of guys were dying or getting wounded and you can call it "the Forgotten War" or "the conflict," but it was a war. That's it."
     — Eddie Rios, United States Marine Corps

Unforgettable: The Korean War serves as reminder that no war, nor the people involved in it, can or should truly be forgotten. Though the nation may have collectively "forgotten" about the war and its veterans, to those who fought it, the Korean War is unforgettable.												TTLTTLTTLTTLTTLTTLTTLTTLTTLTTLTTLTTLTTLTTLTTLTTLTTLTTLTTLTTLTTLTTLTTLTTL															Enjoy and please share.																														               TTLTTLTTLTTLTTLTTLTTLTTLTTLTTLTTLTTLTTLTTLTTLTTLTTLTTLTTLTTLTTLTTLTTLTTL																										                                   Unforgettable(PBS)_The_Korean_War_720p.HDTV.x264_TTL.mkv
Format                           : Matroska
File size                        : 1.30 GiB
Duration                         : 56mn 39s
Overall bit rate                 : 3 277 Kbps
Writing application              : HandBrake 0.9.5
Writing library                  : libmkv 0.6.4.1

Video
ID                               : 1
Format                           : AVC
Format/Info                      : Advanced Video Codec
Format profile                   : High@L3.1
Format settings, CABAC           : Yes
Format settings, ReFrames        : 4 frames
Muxing mode                      : Container profile=Unknown@3.1
Codec ID                         : V_MPEG4/ISO/AVC
Duration                         : 56mn 39s
Bit rate                         : 3 144 Kbps
Width                            : 1 280 pixels
Height                           : 720 pixels
Display aspect ratio             : 16:9
Frame rate mode                  : Variable
Frame rate                       : 29.970 fps
Color space                      : YUV
Chroma subsampling               : 4:2:0
Bit depth                        : 8 bits
Scan type                        : Progressive
Bits/(Pixel*Frame)               : 0.114
Stream size                      : 1.22 GiB (94%)
Writing library                  : x264 core 112
Encoding settings                : cabac=1 / ref=3 / deblock=1:0:0 / analyse=0x3:0x113 / me=hex / subme=7 / psy=1 / psy_rd=1.00:0.00 / mixed_ref=1 / me_range=16 / chroma_me=1 / trellis=1 / 8x8dct=1 / cqm=0 / deadzone=21,11 / fast_pskip=1 / chroma_qp_offset=-2 / threads=6 / sliced_threads=0 / nr=0 / decimate=1 / interlaced=0 / constrained_intra=0 / bframes=3 / b_pyramid=2 / b_adapt=1 / b_bias=0 / direct=1 / weightb=1 / open_gop=0 / weightp=2 / keyint=300 / keyint_min=29 / scenecut=40 / intra_refresh=0 / rc_lookahead=40 / rc=2pass / mbtree=1 / bitrate=3144 / ratetol=1.0 / qcomp=0.60 / qpmin=3 / qpmax=51 / qpstep=4 / cplxblur=20.0 / qblur=0.5 / ip_ratio=1.40 / aq=1:1.00
Color primaries                  : BT.709-5, BT.1361, IEC 61966-2-4, SMPTE RP177
Transfer characteristics         : BT.709-5, BT.1361
Matrix coefficients              : BT.709-5, BT.1361, IEC 61966-2-4 709, SMPTE RP177

Audio
ID                               : 2
Format                           : AC-3
Format/Info                      : Audio Coding 3
Mode extension                   : CM (complete main)
Codec ID                         : A_AC3
Duration                         : 56mn 39s
Bit rate mode                    : Constant
Bit rate                         : 128 Kbps
Channel(s)                       : 2 channels
Channel positions                : Front: L R
Sampling rate                    : 48.0 KHz
Stream size                      : 51.9 MiB (4%)


